<svg width="12" height="24" viewBox="0 0 12 24" fill="none" xmlns="http://www.w3.org/2000/svg">
<path d="M0.914062 24V23.3203C1.67969 23.3203 2.28906 23.2734 2.74219 23.1797C3.19531 23.0703 3.53906 22.8906 3.77344 22.6406C4.00781 22.375 4.15625 22.0156 4.21875 21.5625C4.28125 21.0938 4.3125 20.5 4.3125 19.7812V4.26562C4.3125 3.53125 4.28125 2.9375 4.21875 2.48438C4.15625 2.01562 4.00781 1.64844 3.77344 1.38281C3.53906 1.11719 3.19531 0.9375 2.74219 0.84375C2.28906 0.734375 1.67969 0.679688 0.914062 0.679688V0.046875H11.1797V0.679688C10.4297 0.679688 9.82812 0.734375 9.375 0.84375C8.92188 0.9375 8.57031 1.11719 8.32031 1.38281C8.08594 1.64844 7.92969 2.01562 7.85156 2.48438C7.77344 2.9375 7.73438 3.53125 7.73438 4.26562V19.7812C7.73438 20.5 7.76562 21.0938 7.82812 21.5625C7.90625 22.0156 8.0625 22.375 8.29688 22.6406C8.53125 22.8906 8.875 23.0703 9.32812 23.1797C9.78125 23.2734 10.3984 23.3203 11.1797 23.3203V24H0.914062Z" fill="#12599A"/>
</svg>
